<svg width="20" height="22" viewBox="0 0 20 22" fill="none" xmlns="http://www.w3.org/2000/svg">
<path d="M9.99951 12V1L17.9995 5L9.99951 9M18.5607 9.22188C19.0928 10.862 19.1426 12.6205 18.7041 14.2881C18.2656 15.9558 17.3573 17.4623 16.0872 18.6286C14.8172 19.7948 13.2388 20.5717 11.5399 20.8667C9.84104 21.1617 8.09316 20.9625 6.50424 20.2928C4.91532 19.623 3.55224 18.5109 2.57717 17.0888C1.6021 15.6666 1.05609 13.9943 1.00409 12.2708C0.9521 10.5473 1.39631 8.8451 2.28388 7.36677C3.17145 5.88844 4.46502 4.6962 6.01068 3.93188M6.00141 8.99707C5.50031 9.66409 5.17409 10.4459 5.05245 11.2713C4.93082 12.0966 5.01764 12.9393 5.30501 13.7225C5.59238 14.5057 6.07116 15.2046 6.69774 15.7554C7.32431 16.3063 8.07876 16.6916 8.89234 16.8762C9.70592 17.0609 10.5528 17.039 11.3558 16.8127C12.1587 16.5863 12.8923 16.1626 13.4896 15.5802C14.0869 14.9977 14.529 14.2751 14.7756 13.4781C15.0222 12.6811 15.0655 11.8351 14.9014 11.0171" stroke="#94A3B8" stroke-width="2" stroke-linecap="round" stroke-linejoin="round"/>
</svg>
